<svg width="496" height="534" viewBox="0 0 496 534" fill="none" xmlns="http://www.w3.org/2000/svg">
<path d="M276.952 2.53448C285.701 -1.51763 296.049 0.317841 302.871 7.13189L317.126 21.3696C321.803 26.0415 328.264 28.4748 334.862 28.0488L357.759 26.5703C366.942 25.9773 375.595 30.9153 379.756 39.1234L389.096 57.5502C391.603 62.4956 395.812 66.369 400.948 68.4573L427.188 79.1262C434.253 81.9987 439.434 88.1864 441.021 95.6459L446.731 122.481C447.863 127.8 450.843 132.546 455.142 135.877L472.083 149C479.311 154.6 482.537 163.949 480.298 172.814L474.356 196.343C472.552 203.489 474.281 211.067 479.007 216.722L490.462 230.431C497.232 238.533 497.616 250.205 491.393 258.735L478.803 275.991C474.533 281.844 473.27 289.367 475.395 296.293L480.891 314.205C483.679 323.295 480.588 333.163 473.112 339.037L451.918 355.69C446.592 359.875 443.381 366.195 443.142 372.964L442.553 389.637C442.229 398.83 436.459 406.945 427.883 410.271L401.647 420.444C396.111 422.59 391.619 426.796 389.112 432.179L370.205 472.782C365.701 482.455 355.136 487.759 344.688 485.594L284.068 473.032C276.986 471.565 269.627 473.513 264.199 478.293L248.536 492.088C239.695 499.874 226.401 499.722 217.741 491.735L206.276 481.16C199.495 474.906 189.634 473.308 181.225 477.102L160.893 486.273C150.163 491.114 137.509 487.071 131.573 476.905L102.982 427.939C100.107 423.015 95.5065 419.335 90.0718 417.612L70.1112 411.283C62.3119 408.81 56.4135 402.38 54.6214 394.396L48.3665 366.534C47.1716 361.211 44.1239 356.487 39.7676 353.203L23.3384 340.822C16.3964 335.59 12.9969 326.892 14.5519 318.34L19.3316 292.052C20.4108 286.116 19.1144 279.993 15.7219 275.004L3.98069 257.738C-1.16095 250.176 -1.33529 240.288 3.53665 232.55L15.8037 213.067C19.134 207.778 20.1682 201.361 18.6683 195.293L13.5534 174.6C11.3975 165.878 14.5174 156.7 21.5418 151.098L41.882 134.879C46.7622 130.987 49.8512 125.279 50.4399 119.065L52.4502 97.8464C53.3863 87.9647 60.5562 79.7984 70.2336 77.5914L86.2179 73.946C92.4458 72.5257 97.8024 68.5794 101.005 63.0523L115.047 38.8158C119.332 31.421 127.363 27.0117 135.902 27.3662L158.822 28.3178C165.001 28.5743 171.023 26.3318 175.529 22.0962L192.396 6.24186C199.135 -0.092515 209.012 -1.77428 217.468 1.97307L238.955 11.4962C245.011 14.18 251.93 14.1228 257.94 11.3392L276.952 2.53448Z" fill="#5DA348"/>
<path d="M37.0154 462.29C59.4706 466.976 73.5603 468.103 96.0154 472.79C118.471 477.476 102.015 454.79 102.015 454.79L384.015 452.79L390.515 475.29L448.515 463.29L419.015 494.29L461.015 513.29L379.515 529.79L377.515 514.79C377.515 514.79 344.594 524.167 323.015 527.79C291.556 533.071 241.515 533.29 241.515 533.29C241.515 533.29 200.193 530.798 174.015 526.79C148.577 522.894 109.515 513.29 109.515 513.29L107.515 528.29L22.5154 517.79C22.5154 517.79 36.811 512.777 45.5154 508.54C53.812 504.5 66.0154 496.79 66.0154 496.79L37.0154 462.29Z" fill="#5DA348"/>
<path d="M248.51 431.787C351.255 431.787 434.51 348.043 434.51 244.787C434.51 141.53 351.255 57.7866 248.51 57.7866C145.764 57.7866 62.5098 141.53 62.5098 244.787C62.5098 348.043 145.764 431.787 248.51 431.787Z" fill="#F6F3B0" stroke="#33363D" stroke-width="8"/>
<path d="M93.5098 245.786C93.5098 245.786 123.995 232.81 144.01 225.786C222.683 198.177 278.51 162.287 354.01 187.287C412.01 219.787 412.01 245.787 412.01 251.286C415.01 333.787 320.01 334.787 269.51 343.787C210.735 360.287 133.01 324.286 133.01 324.286C114.683 311.751 96.0098 302.286 86.0098 289.786C82.6538 282.26 81.4133 281.099 81.0098 269.286C80.3833 258.899 82.7149 253.673 93.5098 245.786Z" fill="#45503F"/>
<mask id="mask0_607_419" style="mask-type:alpha" maskUnits="userSpaceOnUse" x="80" y="178" width="333" height="171">
<path d="M93.5098 245.786C93.5098 245.786 123.995 232.81 144.01 225.786C222.683 198.177 278.51 162.287 354.01 187.287C412.01 219.787 412.01 245.787 412.01 251.286C415.01 333.787 320.01 334.787 269.51 343.787C210.735 360.287 133.01 324.286 133.01 324.286C114.683 311.751 96.0098 302.286 86.0098 289.786C82.6538 282.26 81.4133 281.099 81.0098 269.286C80.3833 258.899 82.7149 253.673 93.5098 245.786Z" fill="#45503F"/>
</mask>
<g mask="url(#mask0_607_419)">
<path d="M85.0947 252.346C106.01 282.787 375.51 318.287 429.51 243.786C429.51 243.786 435.76 340.069 357.51 362.786C271.603 387.725 102.669 356.303 95.0106 356.286C69.2946 356.227 66.2513 234.846 85.0947 252.346Z" fill="#404A3F"/>
</g>
<path d="M317.009 199.787C313.51 148.287 326.51 135.287 312.009 111.787C238.01 63.2866 245.009 363.287 245.009 363.287C263.01 360.287 319.009 315.288 322.509 286.787C326.01 258.287 320.509 251.288 317.009 199.787Z" fill="#598B06"/>
<path d="M114.593 312.768C126.059 329.935 157.724 362.4 212.511 367.796C273.838 364.875 298.683 322.833 308.722 305.844C308.996 305.381 309.259 304.936 309.511 304.512C314.074 296.827 318.392 296.522 322.01 288.287C320.881 304.596 317.127 317.569 307.011 331.786C306.362 332.88 305.677 334.073 304.946 335.35C294.972 352.75 269.51 385.287 204.01 385.287C138.01 378.787 119.066 336.002 115.066 325.003C114.528 320.774 114.406 316.682 114.593 312.768Z" fill="#404A3F"/>
<path d="M119.66 264.955L119.647 264.977L119.622 265.019C119.583 265.082 119.53 265.17 119.463 265.283C119.328 265.508 119.137 265.832 118.9 266.248C118.425 267.08 117.761 268.283 116.981 269.806C115.423 272.849 113.391 277.19 111.472 282.426C107.659 292.83 104.168 307.105 106.046 321.855L106.109 322.353L106.281 322.825C108.599 329.201 116.187 341.393 129.615 352.349C143.164 363.403 162.804 373.322 189.262 374.78L189.493 374.793L189.724 374.782C252.222 371.806 280.71 322.944 291.373 304.654C291.921 303.713 292.423 302.853 292.879 302.084L292.942 301.978L293 301.868C299.465 289.476 301.498 273.921 302.006 261.661C302.263 255.462 302.134 249.965 301.942 245.925C301.846 243.903 301.734 242.243 301.646 241.045C301.543 239.633 301.51 239.255 301.51 239.287C301.51 237.61 300.019 209.861 299.51 202.629C299.537 187.898 303.299 167.824 309.65 134.116L309.932 132.62L305.51 131.787L309.932 132.62C311.374 124.967 310.579 118.517 307.898 113.321C305.217 108.128 300.891 104.652 296.108 102.515C286.773 98.3456 275.063 98.9613 267.312 102.119C255.694 106.853 246.431 114.221 236.025 122.498C233.673 124.368 231.263 126.286 228.754 128.229C201.449 149.381 174.132 183.722 153.776 212.477C143.561 226.907 135.03 240.031 129.052 249.549C126.062 254.309 123.708 258.17 122.1 260.846C121.295 262.184 120.677 263.225 120.259 263.934C120.05 264.289 119.891 264.561 119.783 264.745L119.66 264.955Z" fill="#E3E279" stroke="#A4C955" stroke-width="9"/>
<path d="M204.01 192.785C186.834 203.395 169.51 229.285 169.51 229.285C169.51 229.285 159.01 244.283 159.01 266.785C159.01 289.287 169.51 301.285 169.51 301.285C169.51 301.285 180.01 312.287 198.01 316.285C216.01 320.283 230.51 311.285 230.51 311.285C230.51 311.285 244.26 303.785 253.51 287.785C260.447 275.785 262.51 257.785 262.51 257.785C262.51 257.785 268.556 229.604 264.51 212.285C261.033 197.404 258.01 190.287 247.01 177.285C221.01 181.785 218.984 183.534 204.01 192.785Z" fill="#68483B" stroke="#68483B"/>
<path d="M228.51 186.786C218.51 189.785 209.51 196.286 209.51 196.286C209.51 196.286 200.791 202.122 196.01 206.787C191.142 211.535 185.01 220.286 185.01 220.286C185.01 220.286 184.188 223.233 185.01 224.787C185.527 225.763 187.01 226.786 187.01 226.786C187.01 226.786 188.822 227.287 190.01 227.287C191.198 227.287 193.01 225.787 193.01 225.787C193.01 225.787 198.068 218.237 202.51 213.787C206.648 209.64 214.51 203.287 214.51 203.287C214.51 203.287 223.51 198.286 229.51 195.786C235.51 193.287 241.51 194.787 239.01 187.286C239.01 187.286 238.51 183.787 228.51 186.786Z" fill="white" stroke="white"/>
<circle cx="248.51" cy="244.787" r="216.5" stroke="#68483B" stroke-width="3"/>
<circle cx="248.51" cy="244.787" r="204.5" stroke="white" stroke-width="5"/>
<path d="M292.015 315.787C288.51 324.787 290.037 330.356 295.515 338.787C306.198 324.222 311.128 315.711 316.015 299.287C318.01 318.287 288.51 350.787 287.015 353.287C300.515 357.787 313.015 357.787 313.015 357.787C313.015 357.787 330.01 373.287 353.015 368.287C370.015 362.287 388.441 347.106 401.015 323.287C391.603 327.973 385.995 329.426 375.515 329.787C365.035 330.148 347.763 320.905 335.515 325.787C323.266 330.668 318.15 336.077 312.015 350.287C338.123 350.939 353.124 348.516 380.515 338.287C351.759 354.116 332.158 356.329 293.015 352.287L300.515 341.787C332.965 327.811 329.515 306.787 318.015 276.787C317.45 285.724 314.988 289.834 308.515 296.287C299.976 302.987 295.52 306.787 292.015 315.787Z" fill="#66A300"/>
<path d="M219.01 315.787C246.562 309.6 258.37 285.471 263.51 254.787C263.51 254.787 258.01 282.287 222.01 297.287C200.591 305.386 163.51 293.287 163.51 293.287C177.143 313.617 195.412 321.085 219.01 315.787Z" fill="#5A433D"/>
<path d="M124.957 486.887L125.173 486.221C125.92 486.414 126.493 486.502 126.891 486.484C127.312 486.473 127.642 486.286 127.883 485.922C128.146 485.566 128.407 484.988 128.666 484.189L134.022 467.676C134.289 466.855 134.417 466.234 134.406 465.814C134.425 465.378 134.267 465.033 133.933 464.777C133.628 464.507 133.113 464.241 132.388 463.982L132.604 463.316C133.196 463.532 133.932 463.796 134.813 464.106C135.693 464.416 136.578 464.715 137.465 465.003C138.442 465.32 139.355 465.604 140.206 465.856C141.079 466.114 141.774 466.315 142.292 466.459L142.076 467.124C141.358 466.916 140.786 466.829 140.358 466.862C139.96 466.88 139.629 467.067 139.366 467.423C139.111 467.757 138.85 468.335 138.584 469.156L133.227 485.669C132.968 486.468 132.84 487.089 132.843 487.531C132.847 487.974 133.005 488.32 133.317 488.568C133.651 488.824 134.166 489.089 134.861 489.364L134.645 490.029C134.149 489.819 133.469 489.574 132.603 489.293C131.767 488.997 130.86 488.691 129.884 488.374C128.996 488.086 128.105 487.809 127.21 487.544C126.322 487.256 125.571 487.037 124.957 486.887ZM110.908 482.329L111.124 481.663C111.871 481.856 112.444 481.944 112.842 481.926C113.262 481.915 113.593 481.728 113.834 481.365C114.096 481.008 114.357 480.431 114.616 479.632L119.973 463.119C120.24 462.298 120.367 461.677 120.357 461.256C120.375 460.821 120.218 460.475 119.883 460.22C119.579 459.949 119.064 459.684 118.339 459.424L118.555 458.758C119.102 458.96 119.805 459.213 120.664 459.516C121.522 459.819 122.451 460.133 123.449 460.457C124.337 460.745 125.217 461.018 126.09 461.276C126.963 461.535 127.68 461.743 128.243 461.901L128.027 462.567C127.309 462.359 126.737 462.271 126.309 462.304C125.911 462.322 125.58 462.509 125.317 462.865C125.062 463.2 124.801 463.777 124.534 464.598L119.177 481.111C118.918 481.91 118.79 482.531 118.794 482.974C118.798 483.417 118.955 483.762 119.267 484.01C119.601 484.266 120.116 484.531 120.812 484.806L120.596 485.472C120.056 485.247 119.353 484.995 118.487 484.714C117.629 484.411 116.756 484.116 115.868 483.828C114.869 483.504 113.933 483.212 113.06 482.954C112.195 482.673 111.477 482.465 110.908 482.329ZM119.938 472.527L120.154 471.861L133.305 476.127L133.089 476.793L119.938 472.527Z" fill="white"/>
<path d="M154.379 469.265L157.193 492.631C157.324 493.532 157.542 494.189 157.845 494.604C158.177 495.002 158.51 495.255 158.843 495.364L158.67 496.043C158.094 495.847 157.388 495.643 156.551 495.43C155.743 495.199 154.909 494.974 154.05 494.755C153.055 494.501 152.126 494.276 151.261 494.079C150.402 493.86 149.695 493.704 149.141 493.61L149.314 492.932C150.478 493.181 151.262 493.177 151.665 492.918C152.074 492.637 152.2 491.863 152.042 490.594L150.185 472.962L150.986 472.372L141.967 485.061C141.249 486.081 140.753 486.942 140.478 487.642C140.202 488.343 140.115 488.922 140.214 489.381C140.314 489.84 140.578 490.221 141.007 490.523C141.441 490.802 142.006 491.043 142.701 491.244L142.528 491.922C141.816 491.693 141.121 491.491 140.442 491.318C139.77 491.122 139.095 490.938 138.416 490.765C137.919 490.638 137.441 490.528 136.983 490.435C136.554 490.325 136.164 490.25 135.813 490.209L135.986 489.53C136.512 489.544 137.074 489.374 137.669 489.021C138.288 488.673 138.973 487.969 139.726 486.909L152.616 468.815C152.882 468.906 153.173 468.993 153.489 469.074C153.806 469.154 154.102 469.218 154.379 469.265ZM153.668 484.363L153.495 485.041L143.389 482.462L143.902 481.87L153.668 484.363Z" fill="white"/>
<path d="M173.472 473.134C174.754 473.387 175.711 473.718 176.344 474.128C176.977 474.538 177.513 474.953 177.954 475.372C178.197 475.587 178.39 475.755 178.532 475.879C178.702 475.983 178.866 476.052 179.027 476.083C179.256 476.128 179.441 476.034 179.582 475.8C179.746 475.571 179.912 475.211 180.08 474.721L180.87 474.877C180.761 475.307 180.628 475.804 180.469 476.367C180.333 476.935 180.159 477.697 179.947 478.654C179.762 479.593 179.516 480.841 179.21 482.398L178.42 482.242C178.581 481.061 178.539 479.887 178.293 478.721C178.07 477.559 177.614 476.554 176.925 475.705C176.264 474.837 175.303 474.28 174.044 474.032C172.923 473.811 171.918 473.958 171.032 474.473C170.169 474.992 169.627 475.813 169.406 476.935C169.216 477.896 169.297 478.756 169.647 479.515C170.001 480.251 170.552 481.013 171.301 481.803C172.076 482.574 172.994 483.468 174.054 484.486C175.032 485.439 175.895 486.37 176.643 487.279C177.396 488.164 177.939 489.091 178.271 490.061C178.626 491.034 178.68 492.151 178.432 493.41C178.139 494.898 177.529 496.062 176.602 496.902C175.676 497.742 174.547 498.281 173.216 498.518C171.885 498.755 170.487 498.73 169.022 498.441C167.671 498.175 166.622 497.826 165.875 497.393C165.151 496.965 164.532 496.546 164.018 496.136C163.578 495.716 163.22 495.479 162.946 495.425C162.717 495.38 162.52 495.472 162.356 495.701C162.215 495.935 162.06 496.297 161.892 496.787L161.103 496.631C161.252 496.114 161.397 495.5 161.537 494.791C161.699 494.085 161.891 493.172 162.112 492.05C162.36 490.91 162.656 489.47 162.999 487.73L163.788 487.886C163.591 489.369 163.573 490.792 163.732 492.155C163.919 493.5 164.371 494.647 165.088 495.597C165.827 496.551 166.929 497.173 168.395 497.461C169.196 497.619 169.944 497.624 170.639 497.475C171.362 497.309 171.976 496.966 172.483 496.447C172.994 495.906 173.342 495.166 173.526 494.227C173.711 493.289 173.656 492.422 173.361 491.626C173.066 490.831 172.59 490.047 171.933 489.276C171.277 488.505 170.485 487.695 169.558 486.846C168.617 485.947 167.748 485.051 166.949 484.156C166.15 483.262 165.552 482.311 165.156 481.306C164.787 480.282 164.729 479.129 164.981 477.847C165.261 476.427 165.832 475.339 166.694 474.581C167.562 473.801 168.587 473.301 169.772 473.083C170.98 472.869 172.213 472.886 173.472 473.134Z" fill="white"/>
<path d="M193.014 476.383C194.308 476.568 195.281 476.849 195.934 477.225C196.587 477.601 197.145 477.988 197.607 478.384C197.861 478.585 198.062 478.744 198.211 478.859C198.385 478.955 198.554 479.014 198.715 479.038C198.946 479.071 199.126 478.967 199.255 478.726C199.407 478.488 199.554 478.12 199.696 477.622L200.493 477.736C200.407 478.172 200.299 478.675 200.171 479.246C200.065 479.82 199.931 480.59 199.769 481.557C199.633 482.504 199.453 483.763 199.228 485.334L198.431 485.22C198.531 484.032 198.427 482.862 198.121 481.71C197.837 480.562 197.329 479.582 196.597 478.77C195.891 477.938 194.903 477.431 193.633 477.249C192.501 477.087 191.506 477.286 190.648 477.847C189.813 478.411 189.314 479.259 189.152 480.391C189.013 481.361 189.138 482.216 189.528 482.955C189.92 483.671 190.51 484.404 191.299 485.153C192.114 485.883 193.077 486.728 194.189 487.688C195.215 488.589 196.125 489.474 196.92 490.342C197.718 491.187 198.309 492.085 198.691 493.035C199.097 493.989 199.209 495.101 199.027 496.372C198.812 497.873 198.264 499.067 197.382 499.955C196.501 500.842 195.402 501.439 194.085 501.746C192.769 502.052 191.371 502.099 189.893 501.888C188.53 501.693 187.464 501.399 186.696 501.006C185.95 500.616 185.31 500.23 184.775 499.847C184.314 499.451 183.944 499.233 183.667 499.193C183.436 499.16 183.245 499.262 183.093 499.5C182.964 499.741 182.829 500.11 182.686 500.609L181.89 500.494C182.012 499.97 182.124 499.349 182.227 498.633C182.352 497.921 182.496 496.998 182.658 495.867C182.847 494.715 183.067 493.262 183.318 491.506L184.115 491.62C183.995 493.112 184.051 494.534 184.282 495.887C184.539 497.22 185.05 498.342 185.815 499.253C186.603 500.168 187.737 500.731 189.215 500.942C190.023 501.058 190.771 501.023 191.457 500.839C192.17 500.635 192.766 500.26 193.245 499.716C193.726 499.148 194.035 498.391 194.171 497.444C194.306 496.497 194.206 495.634 193.87 494.855C193.533 494.077 193.017 493.319 192.321 492.583C191.625 491.847 190.792 491.079 189.822 490.281C188.836 489.432 187.92 488.582 187.076 487.731C186.231 486.879 185.585 485.961 185.136 484.978C184.714 483.975 184.596 482.826 184.781 481.533C184.986 480.101 185.5 478.984 186.322 478.182C187.147 477.358 188.145 476.805 189.317 476.525C190.511 476.248 191.744 476.201 193.014 476.383Z" fill="white"/>
<path d="M233.682 480.412C233.529 481.408 233.401 482.37 233.299 483.299C233.22 484.229 233.166 484.939 233.137 485.428C233.105 485.964 233.087 486.465 233.082 486.933C233.078 487.4 233.077 487.809 233.079 488.16L232.276 488.112C232.124 486.349 231.856 484.954 231.473 483.926C231.092 482.875 230.541 482.118 229.821 481.654C229.102 481.167 228.125 480.887 226.891 480.813L225.388 480.723C224.69 480.682 224.151 480.708 223.771 480.802C223.391 480.896 223.12 481.126 222.958 481.49C222.82 481.856 222.727 482.423 222.682 483.191L221.639 500.66C221.586 501.545 221.64 502.215 221.8 502.669C221.96 503.122 222.303 503.435 222.831 503.607C223.358 503.778 224.122 503.906 225.122 503.989L225.078 504.722C224.406 504.636 223.534 504.56 222.462 504.496C221.392 504.409 220.286 504.331 219.145 504.263C218.167 504.205 217.223 504.16 216.313 504.129C215.405 504.075 214.611 504.051 213.933 504.057L213.975 503.359C214.746 503.358 215.323 503.299 215.704 503.181C216.108 503.065 216.381 502.801 216.522 502.389C216.687 501.978 216.794 501.353 216.844 500.515L217.878 483.185C217.93 482.324 217.898 481.69 217.781 481.286C217.69 480.86 217.45 480.565 217.063 480.402C216.7 480.217 216.135 480.089 215.368 480.02L215.409 479.321C216.34 479.4 217.316 479.482 218.34 479.566C219.388 479.629 220.412 479.702 221.412 479.785C222.437 479.846 223.38 479.902 224.242 479.954C225.127 480.006 225.838 480.049 226.373 480.081C227.445 480.145 228.656 480.217 230.007 480.298C231.383 480.356 232.608 480.394 233.682 480.412ZM227.681 492.255C227.681 492.255 227.674 492.372 227.66 492.605C227.646 492.838 227.639 492.954 227.639 492.954L221.071 492.562C221.071 492.562 221.078 492.446 221.091 492.213C221.105 491.98 221.112 491.863 221.112 491.863L227.681 492.255ZM228.759 487.691C228.587 489.014 228.48 490.024 228.438 490.723C228.42 491.423 228.393 492.064 228.359 492.646C228.324 493.229 228.297 493.87 228.279 494.57C228.26 495.27 228.258 496.287 228.272 497.62L227.469 497.572C227.423 496.775 227.292 496.019 227.078 495.305C226.865 494.567 226.503 493.973 225.992 493.522C225.506 493.049 224.774 492.783 223.796 492.725L223.837 492.026C224.559 492.069 225.162 491.953 225.646 491.678C226.13 491.403 226.514 491.04 226.798 490.59C227.107 490.117 227.346 489.629 227.517 489.125C227.712 488.599 227.858 488.105 227.956 487.644L228.759 487.691Z" fill="white"/>
<path d="M246.311 480.482L246.301 481.182C245.554 481.195 244.981 481.281 244.582 481.439C244.207 481.574 243.947 481.85 243.801 482.268C243.656 482.663 243.577 483.292 243.565 484.155L243.329 501.514C243.318 502.353 243.379 502.984 243.514 503.406C243.648 503.828 243.901 504.112 244.272 504.257C244.667 504.402 245.237 504.503 245.983 504.56L245.974 505.26C245.391 505.205 244.645 505.172 243.735 505.159C242.825 505.124 241.904 505.1 240.971 505.087C239.921 505.073 238.941 505.071 238.03 505.082C237.121 505.069 236.374 505.083 235.79 505.121L235.799 504.421C236.57 504.385 237.143 504.3 237.518 504.165C237.916 504.03 238.177 503.754 238.299 503.335C238.445 502.917 238.523 502.288 238.535 501.448L238.771 484.09C238.783 483.227 238.721 482.596 238.587 482.197C238.476 481.776 238.223 481.492 237.828 481.347C237.457 481.179 236.887 481.077 236.117 481.044L236.127 480.344C236.71 480.375 237.456 480.408 238.365 480.444C239.275 480.48 240.255 480.505 241.305 480.519C242.238 480.532 243.16 480.533 244.07 480.522C244.98 480.511 245.727 480.498 246.311 480.482Z" fill="white"/>
<path d="M260.597 480.137L260.621 480.836C259.828 480.886 259.225 481 258.811 481.177C258.419 481.33 258.16 481.619 258.034 482.044C257.908 482.445 257.859 483.077 257.888 483.94L258.478 501.57C258.503 502.316 258.58 502.885 258.71 503.278C258.863 503.646 259.116 503.883 259.469 503.988C259.823 504.093 260.326 504.134 260.979 504.112L262.973 504.046C263.883 504.015 264.67 503.825 265.336 503.476C266.024 503.126 266.615 502.628 267.107 501.981C267.598 501.334 267.993 500.551 268.289 499.63C268.584 498.687 268.782 497.629 268.883 496.459L269.687 496.432C269.643 497.204 269.642 498.208 269.683 499.444C269.7 499.957 269.737 500.691 269.792 501.646C269.87 502.601 269.974 503.59 270.101 504.613C268.91 504.606 267.569 504.627 266.076 504.677C264.583 504.704 263.253 504.737 262.087 504.776C261.528 504.794 260.816 504.818 259.953 504.847C259.091 504.876 258.146 504.919 257.121 504.977C256.118 505.011 255.093 505.057 254.044 505.115C253.018 505.149 252.039 505.194 251.107 505.248L251.083 504.549C251.851 504.476 252.42 504.364 252.788 504.211C253.18 504.058 253.427 503.77 253.53 503.346C253.655 502.922 253.704 502.29 253.676 501.45L253.095 484.1C253.067 483.237 252.976 482.61 252.822 482.218C252.692 481.802 252.426 481.531 252.025 481.404C251.646 481.254 251.072 481.179 250.301 481.182L250.278 480.482C250.862 480.486 251.609 480.484 252.519 480.477C253.429 480.47 254.409 480.449 255.458 480.414C256.415 480.382 257.359 480.339 258.291 480.284C259.223 480.229 259.992 480.18 260.597 480.137Z" fill="white"/>
<path d="M282.708 478.498L293.172 499.579C293.597 500.384 294.021 500.931 294.446 501.22C294.892 501.484 295.29 501.612 295.641 501.603L295.704 502.301C295.096 502.309 294.362 502.353 293.502 502.431C292.663 502.484 291.803 502.551 290.92 502.632C289.897 502.725 288.946 502.823 288.065 502.927C287.182 503.008 286.463 503.097 285.91 503.194L285.846 502.497C287.027 502.342 287.764 502.076 288.058 501.698C288.349 501.296 288.209 500.524 287.636 499.381L279.991 483.385L280.548 482.561L276.291 497.534C275.956 498.737 275.775 499.714 275.75 500.466C275.725 501.218 275.836 501.793 276.083 502.193C276.331 502.592 276.707 502.862 277.212 503.003C277.715 503.122 278.327 503.159 279.05 503.117L279.113 503.814C278.365 503.835 277.643 503.878 276.946 503.941C276.247 503.982 275.548 504.034 274.851 504.097C274.34 504.144 273.853 504.2 273.391 504.266C272.949 504.306 272.556 504.365 272.212 504.444L272.148 503.746C272.649 503.584 273.121 503.236 273.564 502.703C274.031 502.169 274.442 501.276 274.796 500.025L280.896 478.663C281.177 478.661 281.48 478.645 281.805 478.615C282.131 478.586 282.432 478.546 282.708 478.498ZM287.086 492.965L287.149 493.662L276.762 494.609L277.047 493.881L287.086 492.965Z" fill="white"/>
<path d="M316.189 474.002L316.295 474.694C315.568 474.876 315.03 475.136 314.68 475.473C314.327 475.787 314.126 476.243 314.076 476.841C314.046 477.412 314.111 478.217 314.27 479.255L317.309 499.007C317.098 499.016 316.866 499.04 316.612 499.079C316.382 499.115 316.13 499.165 315.857 499.231L297.913 481.346L300.213 496.291C300.383 497.398 300.585 498.252 300.819 498.853C301.05 499.431 301.417 499.824 301.921 500.029C302.444 500.208 303.197 500.27 304.18 500.213L304.287 500.905C303.841 500.926 303.273 500.99 302.581 501.096C301.885 501.18 301.226 501.269 300.604 501.365C300.05 501.45 299.487 501.549 298.914 501.661C298.361 501.746 297.903 501.84 297.541 501.943L297.434 501.251C298.181 501.041 298.72 500.782 299.05 500.471C299.403 500.157 299.593 499.703 299.619 499.109C299.669 498.511 299.616 497.705 299.459 496.69L297 480.708C296.869 479.855 296.704 479.243 296.506 478.872C296.326 478.474 296.03 478.237 295.617 478.159C295.223 478.054 294.644 478.049 293.879 478.143L293.773 477.451C294.145 477.417 294.61 477.369 295.167 477.307C295.747 477.241 296.314 477.166 296.867 477.081C297.398 476.999 297.915 476.908 298.419 476.807C298.923 476.706 299.369 476.613 299.757 476.53L315.385 491.796L313.517 479.654C313.343 478.524 313.141 477.67 312.911 477.091C312.68 476.513 312.313 476.121 311.809 475.915C311.305 475.709 310.552 475.648 309.55 475.732L309.443 475.04C309.885 474.995 310.454 474.932 311.149 474.848C311.867 474.761 312.526 474.672 313.126 474.579C313.703 474.491 314.266 474.392 314.816 474.284C315.389 474.172 315.847 474.078 316.189 474.002Z" fill="white"/>
<path d="M328.156 471.291C332.529 470.32 335.991 470.627 338.542 472.211C341.111 473.768 342.818 476.449 343.662 480.253C344.214 482.735 344.173 485.027 343.54 487.128C342.925 489.2 341.751 490.967 340.02 492.427C338.289 493.887 336.022 494.928 333.221 495.55C332.879 495.626 332.409 495.718 331.812 495.827C331.238 495.931 330.631 496.054 329.994 496.195C329.374 496.309 328.802 496.424 328.278 496.54C327.344 496.748 326.435 496.962 325.552 497.182C324.664 497.379 323.94 497.564 323.38 497.736L323.229 497.052C323.97 496.84 324.508 496.625 324.842 496.407C325.199 496.184 325.389 495.855 325.412 495.42C325.457 494.98 325.389 494.35 325.207 493.53L321.443 476.582C321.256 475.74 321.051 475.14 320.828 474.783C320.624 474.398 320.312 474.18 319.895 474.13C319.495 474.051 318.917 474.084 318.16 474.228L318.008 473.545C318.583 473.441 319.319 473.314 320.217 473.162C321.111 472.987 321.999 472.79 322.883 472.57C323.698 472.365 324.615 472.137 325.635 471.887C326.655 471.637 327.495 471.438 328.156 471.291ZM327.985 471.975C326.937 472.207 326.297 472.553 326.064 473.011C325.831 473.469 325.846 474.29 326.109 475.475L329.903 492.558C330.166 493.743 330.5 494.493 330.905 494.81C331.333 495.121 332.07 495.16 333.118 494.928C335.237 494.457 336.789 493.646 337.777 492.495C338.781 491.316 339.331 489.807 339.425 487.97C339.541 486.127 339.324 483.965 338.773 481.482C338.206 478.931 337.465 476.884 336.549 475.343C335.651 473.774 334.507 472.713 333.117 472.161C331.723 471.587 330.012 471.524 327.985 471.975Z" fill="white"/>
<path d="M352.734 464.975L352.921 465.65C352.208 465.872 351.682 466.115 351.343 466.379C351.021 466.613 350.849 466.952 350.826 467.394C350.797 467.814 350.899 468.439 351.129 469.271L355.774 485.998C355.998 486.808 356.234 487.396 356.482 487.763C356.729 488.131 357.051 488.332 357.448 488.367C357.868 488.396 358.444 488.333 359.176 488.178L359.363 488.852C358.788 488.963 358.063 489.141 357.186 489.384C356.303 489.605 355.412 489.84 354.512 490.09C353.5 490.371 352.559 490.644 351.689 490.91C350.812 491.154 350.099 491.376 349.549 491.577L349.362 490.903C350.091 490.652 350.617 490.409 350.939 490.174C351.284 489.933 351.457 489.594 351.457 489.159C351.479 488.716 351.378 488.091 351.153 487.281L346.509 470.554C346.278 469.722 346.042 469.134 345.801 468.789C345.576 468.416 345.254 468.214 344.835 468.186C344.431 468.128 343.855 468.191 343.107 468.375L342.92 467.7C343.488 467.567 344.214 467.389 345.097 467.168C345.98 466.947 346.928 466.696 347.939 466.416C348.839 466.166 349.724 465.908 350.594 465.642C351.465 465.376 352.178 465.154 352.734 464.975Z" fill="white"/>
<path d="M367.033 460.296L381.99 478.468C382.586 479.156 383.123 479.593 383.602 479.779C384.096 479.935 384.513 479.969 384.853 479.882L385.072 480.547C384.481 480.693 383.776 480.901 382.956 481.171C382.151 481.413 381.328 481.672 380.486 481.95C379.511 482.272 378.606 482.583 377.772 482.883C376.93 483.161 376.25 483.41 375.733 483.63L375.514 482.966C376.629 482.548 377.287 482.122 377.487 481.687C377.681 481.23 377.369 480.51 376.553 479.526L365.491 465.671L365.848 464.742L365.084 480.291C365.029 481.538 365.074 482.53 365.22 483.268C365.365 484.007 365.603 484.542 365.934 484.875C366.265 485.208 366.693 485.387 367.217 485.41C367.733 485.412 368.339 485.31 369.033 485.105L369.252 485.77C368.529 485.96 367.834 486.165 367.17 486.384C366.498 486.581 365.829 486.79 365.165 487.009C364.677 487.17 364.216 487.335 363.78 487.503C363.359 487.642 362.989 487.789 362.672 487.943L362.452 487.278C362.903 487.007 363.284 486.561 363.596 485.942C363.93 485.316 364.128 484.354 364.191 483.055L365.305 460.867C365.578 460.801 365.87 460.717 366.18 460.615C366.49 460.512 366.775 460.406 367.033 460.296ZM374.567 473.4L374.786 474.065L364.882 477.335L364.995 476.561L374.567 473.4Z" fill="white"/>
</svg>
